<svg version="1.1" id="Layer_1" xmlns="http://www.w3.org/2000/svg" xmlns:xlink="http://www.w3.org/1999/xlink" x="0px" y="0px" width="280px" height="50px" viewBox="0 0 280 50" enable-background="new 0 0 280 50" xml:space="preserve" class="logo " style="opacity: 1;">
<g>
	<g>
		<path fill="#383838" d="M81.256,26.996l2.99-0.01l0.068-0.001v0.068v3.065v0.034l-0.029,0.02c-0.699,0.515-1.713,0.775-3.01,0.775
			c-1.621,0-2.943-0.499-3.936-1.485c-0.998-0.986-1.506-2.337-1.512-4.009c0-1.561,0.502-2.86,1.492-3.861
			c0.992-1.003,2.314-1.516,3.93-1.523c1.563,0,2.969,0.473,4.18,1.407l2.297-2.516c-1.799-1.543-3.977-2.325-6.477-2.325
			s-4.621,0.858-6.311,2.551c-1.688,1.694-2.549,3.813-2.557,6.293c0,2.536,0.857,4.678,2.549,6.364
			c1.693,1.686,3.818,2.543,6.318,2.551c2.518,0,4.707-0.791,6.506-2.352v-8.252h-6.5V26.996z"></path>
		<path fill="#383838" d="M99.818,16.636h-7.734v17.759h3.445v-7.33v-0.067h0.066h4.234c4.104,0,6.184-1.775,6.184-5.274
			C106.014,18.347,103.928,16.636,99.818,16.636z M100.605,23.791h-5.01h-0.066v-0.066V19.92v-0.066h0.066h5.047
			c1.451,0.051,2.207,0.689,2.248,1.9C102.85,23.084,102.082,23.77,100.605,23.791z"></path>
		<path fill="#383838" d="M121.73,29.212c0-1.794-0.611-3.119-1.818-3.939c-1.217-0.822-2.592-1.322-4.086-1.481
			c-1.443-0.239-2.381-0.606-2.791-1.096c-0.412-0.498-0.414-1.106-0.006-1.809c0.41-0.693,1.354-1.044,2.803-1.044
			c1.42,0,2.545,0.471,3.346,1.398l2.283-2.286c-0.768-0.762-1.607-1.343-2.496-1.727c-0.9-0.394-2.191-0.593-3.836-0.593
			c-1.41,0-2.803,0.479-4.141,1.428c-1.33,0.936-2.004,2.198-2.004,3.754c0,1.717,0.59,2.94,1.754,3.64
			c1.184,0.71,2.498,1.148,3.906,1.304c1.605,0.16,2.623,0.591,3.027,1.282c0.408,0.697,0.408,1.402,0,2.098
			c-0.404,0.695-1.426,1.049-3.033,1.049c-1.885-0.16-3.248-0.709-4.057-1.639l-2.289,2.286c0.775,0.764,1.715,1.384,2.795,1.846
			c1.102,0.472,2.494,0.712,4.139,0.712c1.725,0,3.256-0.516,4.553-1.535C121.074,31.842,121.73,30.615,121.73,29.212z"></path>
		<path fill="#383838" d="M141.314,26.996l2.989-0.01l0.066-0.001v0.068v3.065v0.034l-0.027,0.02
			c-0.697,0.515-1.711,0.775-3.011,0.775c-1.617,0-2.939-0.499-3.936-1.485c-0.992-0.986-1.5-2.337-1.508-4.009
			c0-1.562,0.502-2.861,1.49-3.861c0.99-1.003,2.313-1.516,3.932-1.523c1.563,0,2.97,0.473,4.179,1.407l2.297-2.516
			c-1.797-1.543-3.975-2.325-6.476-2.325c-2.5,0-4.623,0.858-6.311,2.551c-1.688,1.693-2.549,3.811-2.557,6.293
			c0,2.536,0.857,4.678,2.549,6.364c1.691,1.686,3.818,2.543,6.318,2.551c2.519,0,4.706-0.791,6.505-2.352v-8.252h-6.501V26.996z"></path>
		<path fill="#383838" d="M163.798,26.944c0,1.368-0.41,2.39-1.219,3.036c-0.803,0.643-1.818,0.968-3.021,0.968
			s-2.223-0.325-3.025-0.968c-0.809-0.645-1.219-1.668-1.219-3.036V16.636h-1.537h-1.906v11.266c0,1.801,0.734,3.349,2.184,4.601
			c1.451,1.256,3.303,1.893,5.504,1.893s4.051-0.637,5.502-1.893c1.447-1.252,2.182-2.801,2.182-4.601V16.636h-3.443V26.944z"></path>
		<path fill="#383838" d="M188.603,34.382l-7.09-17.746h-3.484l-7.105,17.759h3.672l1.057-2.701l0.016-0.041h0.047h8.109h0.045
			l0.018,0.041l1.059,2.7L188.603,34.382z M182.513,28.205h-5.367h-0.1l0.037-0.092l2.721-6.797l0.064-0.159l0.061,0.159
			l2.648,6.797l0.035,0.092H182.513z"></path>
		<path fill="#383838" d="M207.083,34.395l-4.402-7.701l-0.041-0.072l0.078-0.024c2.152-0.694,3.246-2.335,3.246-4.874
			c0-3.376-2.084-5.087-6.193-5.087h-7.734v17.759h3.441v-7.33v-0.067h0.068h3.271h0.039l0.02,0.033l4.26,7.364H207.083z
			 M200.558,23.791h-5.012h-0.068v-0.066V19.92v-0.066h0.068h5.045c1.455,0.051,2.213,0.689,2.254,1.9
			C202.804,23.084,202.034,23.77,200.558,23.791z"></path>
		<path fill="#383838" d="M222.763,18.843c-1.373-1.473-3.465-2.219-6.215-2.219h-6.828v17.771h6.828
			c2.75,0,4.842-0.746,6.215-2.216c1.371-1.472,2.068-3.715,2.068-6.664C224.831,22.56,224.134,20.314,222.763,18.843z
			 M216.548,30.961h-3.314h-0.066v-0.066V20.146v-0.067h0.066h3.314c3.205,0,4.832,1.829,4.838,5.436
			C221.38,29.121,219.753,30.953,216.548,30.961z"></path>
		<polygon fill="#383838" points="229.399,16.624 229.399,34.395 232.829,34.395 232.829,16.624 231.021,16.624 		"></polygon>
		<path fill="#383838" d="M253.917,34.382l-7.092-17.746h-3.484l-7.104,17.759h3.67l1.059-2.701l0.016-0.041h0.045h8.111h0.045
			l0.018,0.041l1.057,2.7L253.917,34.382z M247.827,28.205h-5.367h-0.1l0.037-0.092l2.719-6.797l0.063-0.159l0.063,0.159
			l2.648,6.797l0.035,0.092H247.827z"></path>
		<polygon fill="#383838" points="269.755,16.636 269.755,27.779 269.755,27.941 269.638,27.826 258.444,16.636 257.351,16.636 
			257.351,34.395 259.019,34.395 260.79,34.395 260.79,23.368 260.79,23.205 260.905,23.321 271.978,34.395 273.196,34.395 
			273.196,16.636 271.415,16.636 		"></polygon>
	</g>
	<g>
		<path fill="#C13C3D" d="M41.25,4.967l13.992,13.994c0,0,0.617,0.563,1.293,1.574c-1.73-9.202-7.869-14.102-15.959-15.964
			C40.99,4.724,41.25,4.967,41.25,4.967z"></path>
		<path fill="#C13C3D" d="M53.293,26.032c0-2.977-1.945-4.884-1.945-4.884l-8.053-8.002c0,0-0.563-0.547-1.342-0.547
			c-0.783,0-1.322,0.541-1.322,0.541L28.539,25.237l4.291,4.29l8.531-8.522l5.055,5.026L34.32,38.125c0,0-1.068,1.047-2.289,1.047
			c-1.223,0-2.27-0.96-2.27-0.96L19.707,28.159c0,0-0.869-0.873-0.869-2.127c0-1.255,0.754-1.998,0.754-1.998L38.605,5.007
			c0,0,0.559-0.553,1.334-0.553c0.045,0,0.084,0.007,0.125,0.01c-2.525-0.536-5.225-0.79-8.037-0.79
			c-0.643,0-1.277,0.017-1.908,0.043L12.695,21.148c0,0-2.033,2.029-2.033,4.884s1.984,4.835,1.984,4.835L27.068,45.33
			c0,0,2.066,2.016,4.963,2.016c2.895,0,4.85-2.016,4.85-2.016l14.402-14.402C51.283,30.928,53.293,29.008,53.293,26.032z"></path>
		<path fill="#C13C3D" d="M8.424,32.787c0,0-0.48-0.438-1.039-1.246c1.723,9.027,7.736,13.906,15.639,15.841L8.424,32.787z"></path>
		<path fill="#C13C3D" d="M55.418,32.902L40.943,47.398c7.895-1.922,13.869-6.793,15.584-15.823
			C55.936,32.439,55.418,32.902,55.418,32.902z"></path>
		<path fill="#C13C3D" d="M8.539,19.169l14.488-14.49C15.109,6.618,9.088,11.511,7.379,20.567
			C7.994,19.661,8.539,19.169,8.539,19.169z"></path>
	</g>
</g>
</svg>